<svg xmlns="http://www.w3.org/2000/svg" style="display: none;">

<symbol id="icon-player"
x="0px" y="0px"
	 viewBox="0 0 58 58" style="enable-background:new 0 0 58 58;" xml:space="preserve">
<rect x="8" y="6" style="fill:#EF6129;" width="42" height="46"/>
<g>
	<rect x="50" y="10" style="fill:#EBBA16;" width="4" height="38"/>
	<rect x="4" y="10" style="fill:#EBBA16;" width="4" height="38"/>
</g>
<g>
	<rect x="54" y="14" style="fill:#EFCE4A;" width="4" height="30"/>
	<rect y="14" style="fill:#EFCE4A;" width="4" height="30"/>
</g>
<path style="fill:#FFFFFF;" d="M43.649,12.24c-0.222-0.19-0.515-0.273-0.805-0.228l-19,3C23.358,15.089,23,15.508,23,16v3.286V22
	v13.68C21.831,34.642,20.246,34,18.5,34c-3.584,0-6.5,2.691-6.5,6s2.916,6,6.5,6c3.533,0,6.411-2.617,6.492-5.861
	C24.993,40.126,25,40.115,25,40.102V22.854l17-2.684v9.511C40.831,28.642,39.246,28,37.5,28c-3.584,0-6.5,2.691-6.5,6s2.916,6,6.5,6
	s6.5-2.691,6.5-6V19v-5v-1C44,12.708,43.872,12.43,43.649,12.24z"/>
</symbol>


<symbol id="icon-favorite" x="0px" y="0px" viewBox="0 0 24 24">
<path d="M12 21.35l-1.45-1.32C5.4 15.36 2 12.28 2 8.5 2 5.42 4.42 3 7.5 3c1.74 0 3.41.81 4.5 2.09C13.09 3.81 14.76 3 16.5 3 19.58 3 22 5.42 22 8.5c0 3.78-3.4 6.86-8.55 11.54L12 21.35z"/>
</symbol>

<symbol id="icon-folder" x="0px" y="0px" viewBox="0 0 508 508" style="enable-background:new 0 0 508 508;">
<circle style="fill:#ffffff;" cx="254" cy="254" r="254"/>
<path d="M254,138.4l6-16.4c1.2-3.6,4.8-6,8.8-6h80.8c4,0,7.6,2.4,8.8,6l6,16.4h36.4c5.2,0,9.2,4,9.2,9.2V336
	c0,5.2-4,9.2-9.2,9.2H107.2c-5.2,0-9.2-4-9.2-9.2V147.6c0-5.2,4-9.2,9.2-9.2L254,138.4L254,138.4z"/>
<rect x="112.025" y="152.881" transform="matrix(-0.951 -0.3093 0.3093 -0.951 406.7443 548.249)" style="fill:#FFFFFF;" width="269.609" height="178.006"/>
<path d="M254,222.4l-8-20.8c-2-4.8-6.4-8-11.6-8H129.6c-5.2,0-9.2,3.2-10,8l-4.4,20.8h-46
	c-6.4,0-10.4,5.2-9.2,11.2l36,151.6c0.8,4,6,7.2,11.2,7.2h294c5.2,0,10-3.2,11.2-7.2l36-151.6c1.6-6-2.8-11.2-9.2-11.2L254,222.4
	L254,222.4z"/>
</symbol>


<symbol id="icon-pulse" viewBox="0 0 512 512">
<path d="M428 269c-21.5 0-40.6 13.1-48.4 33h-41.2L307 221.3c-2.7-8.2-10.3-13.7-19-13.7h-.4c-8.8.2-16.4 6-18.8 14.5l-33.6 135.4-55.5-291.8C178 55.6 169.6 48 160 48c-9.5 0-16.9 6.2-19.4 16.2L90.3 302H32v40h74c9.2 0 17.2-6.2 19.4-15.2l30.7-160.6 54.1 282.1c1.5 8.8 8.9 15.1 18.6 15.7h1.2c9.3 0 16.9-5.3 19.2-13.5l40.2-162.9 15.5 40.7c2.7 8.2 10.3 13.7 19 13.7h56.4c8.3 19 27.1 31 47.6 31 13.9 0 26.9-5.6 36.8-15.8 9.8-10.1 15.2-23.3 15.2-37.2.1-28.6-22.7-51-51.9-51z"/>
</symbol>

<symbol id="icon-fingerprint" width="48" height="48" viewBox="0 0 48 48">
<path d="M35.62 8.94c-.16 0-.31-.04-.46-.11C31.33 6.85 28 6 24.02 6c-3.97 0-7.71.95-11.14 2.82-.49.26-1.09.09-1.36-.4-.26-.49-.09-1.09.4-1.36C15.65 5.03 19.72 4 24.02 4c4.26 0 7.98.94 12.06 3.05.49.25.68.86.43 1.35-.18.34-.53.54-.89.54zM7 19.44c-.2 0-.4-.06-.58-.18-.45-.32-.56-.94-.24-1.39 1.98-2.8 4.51-5 7.51-6.55 6.29-3.25 14.33-3.26 20.63-.02 2.99 1.54 5.51 3.72 7.5 6.5.32.45.22 1.07-.23 1.39-.45.32-1.08.22-1.4-.23-1.8-2.52-4.08-4.5-6.78-5.88-5.74-2.95-13.07-2.94-18.8.02-2.71 1.4-5 3.39-6.79 5.93-.2.27-.51.41-.82.41zm12.51 24.13c-.26 0-.51-.1-.71-.3-1.73-1.75-2.67-2.86-4.02-5.27-1.38-2.46-2.11-5.47-2.11-8.69 0-5.94 5.08-10.78 11.33-10.78s11.33 4.83 11.33 10.78c0 .55-.45 1-1 1s-1-.45-1-1c0-4.84-4.18-8.78-9.33-8.78-5.14 0-9.33 3.94-9.33 8.78 0 2.88.64 5.54 1.85 7.71 1.29 2.3 2.15 3.29 3.69 4.84.39.39.39 1.03-.01 1.41-.18.21-.44.3-.69.3zm14.33-3.7c-2.38 0-4.47-.6-6.2-1.77-2.97-2.02-4.75-5.3-4.75-8.78 0-.55.45-1 1-1s1 .45 1 1c0 2.81 1.45 5.47 3.88 7.12 1.41.96 3.07 1.43 5.07 1.43.48 0 1.29-.05 2.09-.19.54-.1 1.06.27 1.16.81.1.54-.27 1.06-.81 1.16-1.17.21-2.16.22-2.44.22zM29.81 44c-.09 0-.18-.01-.26-.04-3.19-.87-5.27-2.05-7.43-4.2-2.79-2.78-4.33-6.49-4.33-10.44 0-3.25 2.76-5.89 6.16-5.89 3.4 0 6.16 2.64 6.16 5.89 0 2.14 1.87 3.89 4.16 3.89s4.16-1.74 4.16-3.89c0-7.54-6.5-13.67-14.49-13.67-5.69 0-10.88 3.16-13.22 8.06-.78 1.62-1.17 3.51-1.17 5.61 0 1.56.14 4.02 1.33 7.21.19.52-.07 1.09-.59 1.29-.52.19-1.09-.07-1.29-.59-.98-2.63-1.46-5.21-1.46-7.91 0-2.4.46-4.58 1.37-6.47 2.67-5.58 8.57-9.19 15.02-9.19 9.09 0 16.49 7.03 16.49 15.67 0 3.25-2.77 5.89-6.16 5.89s-6.16-2.64-6.16-5.89c0-2.14-1.87-3.89-4.16-3.89s-4.16 1.74-4.16 3.89c0 3.41 1.33 6.62 3.74 9.02 1.89 1.88 3.73 2.92 6.55 3.69.53.15.85.7.7 1.23-.12.44-.52.73-.96.73z"/>
</symbol>

</svg>
